<svg xmlns="http://www.w3.org/2000/svg" width="1672" height="889" viewBox="0 0 1672 889">
  <defs>
    <style>
      .cls-1 {
        fill: #ff2121;
      }
    </style>
  </defs>
  <path class="cls-1" d="M-7146,860H-8818V-29h1672V860Zm-317.1-469.9,85.8,129.9h51.3V309.4h-51.3V439.9l-85.8-130.5h-51.3V520h51.3V390.1Zm-269.1-80.7,72.9,141V520h51.3V450.4l72.9-141h-57.6l-40.5,88.2-40.8-88.2h-58.2Zm-126.6,0V520h118.5V480.4h-67.2v-171Zm-88.5,0V520h51.3V309.4Zm-132,131.1,43.8,79.5h57.9l-48.6-83.4a73.132,73.132,0,0,0,20.98-9.853,59.346,59.346,0,0,0,14.568-14.3c7.36-10.318,11.25-23.025,11.25-36.749a68.154,68.154,0,0,0-4.837-25.8,58.828,58.828,0,0,0-14.512-21.075,67.733,67.733,0,0,0-24.187-14.212A103.4,103.4,0,0,0-8056.8,309.4h-86.1V520h51.3V440.5h12.3Zm-232.2,42.3h78.6l12.6,37.2h54.3l-76.2-210.6h-59.4L-8377.8,520h53.7l12.6-37.2Zm-140.7-89.1h0V520h51.3V309.4h-60.3l-58.5,145.8-59.1-145.8h-60.6V520h51.3V393.4l47.4,126.6h41.4Zm206.1,49.5H-8298l25.8-77.1Zm186.3-39h-31.8V352h31.8a39.146,39.146,0,0,1,12.506,1.837,23.169,23.169,0,0,1,8.794,5.213,21.3,21.3,0,0,1,5.194,8.137A31.1,31.1,0,0,1-8031.6,377.8c0,8.4-2.321,14.92-6.9,19.388C-8043.268,401.841-8050.435,404.2-8059.8,404.2Z" transform="translate(8818 28.999)"/>
</svg>
