<svg id="apple-2" data-name="apple" xmlns="http://www.w3.org/2000/svg" xmlns:xlink="http://www.w3.org/1999/xlink" width="29.884" height="36.261" viewBox="0 0 29.884 36.261">
  <defs>
    <style>
      .cls-1 {
        fill: white;
      }
    </style>
  </defs>
    <path id="apple-3" data-name="apple" class="cls-1" d="M30.24,21.738A7.963,7.963,0,0,1,34.2,15.023a8.687,8.687,0,0,0-6.711-3.495c-2.856-.279-5.577,1.617-7.028,1.617s-3.685-1.576-6.055-1.534A9.03,9.03,0,0,0,6.82,16.031C3.583,21.426,5.99,29.423,9.144,33.8c1.541,2.143,3.38,4.549,5.794,4.461,2.323-.088,3.2-1.443,6.011-1.443s3.6,1.446,6.059,1.4c2.5-.046,4.085-2.185,5.615-4.332a19.115,19.115,0,0,0,2.543-5.017,7.838,7.838,0,0,1-4.925-7.131ZM25.62,8.633A7.57,7.57,0,0,0,27.528,3a8.337,8.337,0,0,0-5.4,2.671,7.213,7.213,0,0,0-1.949,5.455,6.911,6.911,0,0,0,5.444-2.5Z" transform="translate(-5.28 -3)"/>
</svg>
