<svg id="instagram-2" data-name="instagram" xmlns="http://www.w3.org/2000/svg" xmlns:xlink="http://www.w3.org/1999/xlink" width="33.001" height="32.9" viewBox="0 0 33.001 32.9">
  <defs>
    <style>
      .cls-1 {
        fill: white;
      }
    </style>
  </defs>
    <path class="cls-1" d="M19.5,3c-4.481,0-5.042.019-6.8.1a12.51,12.51,0,0,0-4,.742A8.118,8.118,0,0,0,5.769,5.677,7.8,7.8,0,0,0,3.866,8.5,11.419,11.419,0,0,0,3.1,12.374c-.079,1.7-.1,2.244-.1,6.575s.019,4.874.1,6.575A11.4,11.4,0,0,0,3.867,29.4a7.8,7.8,0,0,0,1.9,2.826,8.122,8.122,0,0,0,2.924,1.84,12.533,12.533,0,0,0,4,.742c1.76.077,2.322.1,6.8.1s5.042-.019,6.8-.1a12.51,12.51,0,0,0,4-.742,8.121,8.121,0,0,0,2.924-1.84,7.8,7.8,0,0,0,1.9-2.826,11.419,11.419,0,0,0,.768-3.871c.079-1.7.1-2.245.1-6.575s-.02-4.874-.1-6.575A11.4,11.4,0,0,0,35.134,8.5a7.8,7.8,0,0,0-1.9-2.826,8.118,8.118,0,0,0-2.924-1.839,12.533,12.533,0,0,0-4-.742C24.542,3.019,23.981,3,19.5,3m0,2.874c4.405,0,4.927.016,6.666.093a9.443,9.443,0,0,1,3.066.549,5.183,5.183,0,0,1,1.9,1.193,4.951,4.951,0,0,1,1.234,1.834A8.6,8.6,0,0,1,32.93,12.5c.079,1.683.1,2.185.1,6.446s-.016,4.762-.1,6.444a8.659,8.659,0,0,1-.568,2.963,4.931,4.931,0,0,1-1.234,1.834,5.156,5.156,0,0,1-1.9,1.193,9.432,9.432,0,0,1-3.063.549c-1.739.077-2.26.093-6.668.093s-4.929-.016-6.666-.093a9.5,9.5,0,0,1-3.066-.549,5.132,5.132,0,0,1-1.9-1.193,4.928,4.928,0,0,1-1.234-1.834A8.541,8.541,0,0,1,6.069,25.4c-.079-1.683-.1-2.185-.1-6.446s.016-4.762.1-6.444a8.6,8.6,0,0,1,.568-2.963A4.978,4.978,0,0,1,7.871,7.708a5.156,5.156,0,0,1,1.9-1.193,9.374,9.374,0,0,1,3.063-.549c1.741-.077,2.26-.093,6.668-.093m0,18.392A5.319,5.319,0,1,1,25,18.95a5.41,5.41,0,0,1-5.5,5.316m0-13.506a8.335,8.335,0,0,0-8.472,8.19A8.335,8.335,0,0,0,19.5,27.14a8.335,8.335,0,0,0,8.472-8.19A8.335,8.335,0,0,0,19.5,10.76m10.787-.323a1.981,1.981,0,1,1-1.98-1.914,1.948,1.948,0,0,1,1.98,1.914" transform="translate(-3 -3)"/>
</svg>
