<svg id="soundcloud" xmlns="http://www.w3.org/2000/svg" width="49.32" height="25.781" viewBox="0 0 49.32 25.781">
  <defs>
    <style>
      .cls-1 {
        fill: white;
      }
    </style>
  </defs>
  <path class="cls-1" d="M29.954,10.22a8.607,8.607,0,0,0-3.393.722,1.24,1.24,0,0,0-.763.707l.051,23.855a.769.769,0,0,0,.44.5H43.826c2.866.061,5.1-2.9,5.462-6.516.31-3.91-1.666-7.412-5.133-8.02a5.6,5.6,0,0,0-3.21.475c-.033.018-.042-.028-.068-.313a14.983,14.983,0,0,0-2.612-7.1,10.507,10.507,0,0,0-8.307-4.307Zm-5.433,1.745c-.334,0-.655,5.76-.708,17.281.819,8.835.727,9.066,1.5,0C25.2,17.723,24.855,11.965,24.521,11.965ZM22.4,13.336c-.334.013-.648,5.328-.686,15.91.819,8.835.727,9.066,1.5,0-.123-10.631-.479-15.923-.814-15.91Zm-6.15,1.643a.015.015,0,0,0-.008,0c-.315.058-.611,4.8-.69,14.266.819,8.835.726,9.066,1.5,0-.151-9.478-.485-14.25-.8-14.266h0Zm2.065.446c-.325-.008-.638,4.591-.719,13.82.819,8.835.727,9.066,1.5,0C18.975,20.048,18.639,15.434,18.316,15.425Zm-4.1.186c-.338,0-.644,4.553-.656,13.635.819,8.835.726,9.066,1.5,0C14.927,20.147,14.557,15.606,14.22,15.611Zm6.135.27-.008,0c-.332.061-.638,4.579-.678,13.363.819,8.835.727,9.066,1.5,0-.136-8.963-.486-13.357-.815-13.365h0Zm-8.135.595c-.292,0-.567,4.185-.7,12.77.819,8.835.727,9.066,1.5,0-.193-8.439-.5-12.767-.8-12.77ZM10.261,18.85c-.277-.02-.556,3.424-.759,10.4.819,8.835.727,9.066,1.5,0-.192-6.89-.466-10.376-.743-10.4ZM6.276,22.3c-.164.04-.325,2.225-.685,6.639.775,8.738.688,8.965,1.419,0C6.617,24.506,6.446,22.263,6.276,22.3ZM4.3,22.485c-.164.04-.325,2.182-.685,6.506.775,8.564.688,8.787,1.419,0-.388-4.283-.56-6.479-.726-6.506C4.3,22.485,4.3,22.483,4.3,22.485Zm3.924.1c-.173.04-.344,2.227-.725,6.639.819,8.738.727,8.965,1.5,0-.41-4.369-.592-6.61-.769-6.639,0,0-.005,0-.008,0Zm-5.846,1.07c-.164.033-.326,1.837-.686,5.477.775,7.208.688,7.4,1.419,0-.388-3.6-.559-5.454-.726-5.477H2.375ZM.56,25.633c-.134.022-.266,1.181-.56,3.522.633,4.637.562,4.758,1.16,0C.838,26.8.7,25.611.56,25.633Z" transform="translate(0 -10.22)"/>
</svg>
