<svg id="spotify-2" data-name="spotify" xmlns="http://www.w3.org/2000/svg" xmlns:xlink="http://www.w3.org/1999/xlink" width="36" height="37" viewBox="0 0 36 37">
  <defs>
    <style>
      .cls-1 {
        fill: white;
      }
    </style>
  </defs>
    <path id="spotify-3" data-name="spotify" class="cls-1" d="M26.414,25.359a1.358,1.358,0,0,0-.7-1.195,20.075,20.075,0,0,0-10.477-2.695,31.316,31.316,0,0,0-6.727.8,1.127,1.127,0,0,0-.984,1.219,1.148,1.148,0,0,0,.316.809,1.081,1.081,0,0,0,.833.339,6.851,6.851,0,0,0,.867-.188,28.572,28.572,0,0,1,5.695-.633,17.682,17.682,0,0,1,9.305,2.414,1.6,1.6,0,0,0,.773.258,1.1,1.1,0,0,0,1.1-1.125Zm2.25-5.039a1.572,1.572,0,0,0-.82-1.43A24.638,24.638,0,0,0,15,15.585a26.236,26.236,0,0,0-7.1.984,1.4,1.4,0,0,0-1.125,1.5A1.4,1.4,0,0,0,8.18,19.477a5.1,5.1,0,0,0,.867-.188,22.44,22.44,0,0,1,5.883-.773,22,22,0,0,1,11.438,2.906,2.055,2.055,0,0,0,.891.305,1.4,1.4,0,0,0,1.4-1.407Zm2.531-5.813a1.77,1.77,0,0,0-.938-1.641,24.2,24.2,0,0,0-6.867-2.59A36.53,36.53,0,0,0,15.352,9.4a30.276,30.276,0,0,0-8.531,1.1,1.857,1.857,0,0,0-.9.6,1.716,1.716,0,0,0-.364,1.136,1.677,1.677,0,0,0,.48,1.219,1.616,1.616,0,0,0,1.207.492,4.276,4.276,0,0,0,.938-.188,26.943,26.943,0,0,1,7.2-.867,32.809,32.809,0,0,1,7.254.8,20.506,20.506,0,0,1,5.941,2.227,1.9,1.9,0,0,0,.938.281,1.661,1.661,0,0,0,1.184-.48,1.593,1.593,0,0,0,.5-1.207ZM36,18a17.609,17.609,0,0,1-2.414,9.035,17.925,17.925,0,0,1-6.551,6.552A17.6,17.6,0,0,1,18,36a17.622,17.622,0,0,1-9.035-2.414,17.907,17.907,0,0,1-6.551-6.551A17.613,17.613,0,0,1,0,18,17.613,17.613,0,0,1,2.414,8.965,17.907,17.907,0,0,1,8.965,2.414,17.622,17.622,0,0,1,18,0a17.6,17.6,0,0,1,9.035,2.414,17.927,17.927,0,0,1,6.551,6.551A17.606,17.606,0,0,1,36,18Z"/>
</svg>
